<svg width="122" height="140" viewBox="0 0 122 140" fill="none" xmlns="http://www.w3.org/2000/svg">
<path d="M60.0138 0.878088C60.2005 -0.234624 61.7995 -0.234615 61.9862 0.878098L70.5494 51.9172C70.6534 52.537 71.2967 52.9084 71.8855 52.6885L120.368 34.585C121.425 34.1903 122.225 35.5751 121.354 36.2931L81.4349 69.2286C80.9501 69.6286 80.9501 70.3714 81.4349 70.7714L121.354 103.707C122.225 104.425 121.425 105.81 120.368 105.415L71.8855 87.3115C71.2967 87.0916 70.6534 87.463 70.5494 88.0828L61.9862 139.122C61.7995 140.235 60.2005 140.235 60.0138 139.122L51.4506 88.0828C51.3466 87.463 50.7033 87.0916 50.1145 87.3115L1.63178 105.415C0.574795 105.81 -0.224723 104.425 0.645571 103.707L40.5651 70.7714C41.0499 70.3714 41.0499 69.6286 40.5651 69.2286L0.645563 36.2931C-0.22473 35.5751 0.574804 34.1903 1.63179 34.585L50.1145 52.6885C50.7033 52.9084 51.3466 52.537 51.4506 51.9172L60.0138 0.878088Z" fill="#A5E5FF"/>
</svg>
